Coordinates
version=1
nRows=8
nColumns=36
inDegrees=yes

Units are S.I. units (second, meters, Newtons, ...)
If the header above contains a line with 'inDegrees', this indicates whether rotational values are in degrees (yes) or radians (no).

endheader
time	pelvis_tilt	pelvis_list	pelvis_rotation	pelvis_tx	pelvis_ty	pelvis_tz	hip_flexion_r	hip_adduction_r	hip_rotation_r	knee_angle_r	knee_angle_r_beta	ankle_angle_r	subtalar_angle_r	mtp_angle_r	hip_flexion_l	hip_adduction_l	hip_rotation_l	knee_angle_l	knee_angle_l_beta	ankle_angle_l	subtalar_angle_l	mtp_angle_l	lumbar_extension	lumbar_bending	lumbar_rotation	arm_flex_r	arm_add_r	arm_rot_r	elbow_flex_r	pro_sup_r	arm_flex_l	arm_add_l	arm_rot_l	elbow_flex_l	pro_sup_l
      1.98333330	     -4.95832596	      7.48754399	     -2.64849624	      0.70794534	      0.96474543	      0.07284336	     22.64521564	      0.85817579	      7.16012312	     28.83373187	      0.50324356	     17.87711423	     -1.41689416	     -7.49981564	     49.77251060	     -5.52572907	     -4.86900511	     23.56761477	      0.41133247	     -9.10287785	    -11.12178704	     -7.49981564	    -29.98627202	     -7.64887233	      5.77284120	     46.47658697	     14.57047169	     74.23943711	    121.69561152	     95.57494262	     62.79554426	     13.48757113	     78.95336134	    125.91156302	     74.09649125
      2.00000000	     -4.60088891	      7.48402122	     -2.50675476	      0.71244150	      0.96924934	      0.07009715	     20.99717727	      0.42733077	      6.64588651	     26.77022991	      0.46722865	     17.59717079	     -0.17039754	     -7.49982924	     48.68373962	     -5.30171608	     -4.67831295	     22.87111718	      0.39917630	     -8.93993267	    -11.49650521	     -7.49982924	    -29.10426838	     -7.06146620	      5.84965675	     45.49513225	     14.02922138	     73.89447900	    121.90056725	     94.68335373	     62.19499679	     13.33922344	     78.23361111	    125.89149800	     73.02250749
      2.01666670	     -4.58956959	      7.50194548	     -2.68366632	      0.71209885	      0.97134673	      0.07046491	     20.00607152	      0.20472548	      6.50383937	     25.06809150	      0.43752073	     17.39158114	      0.94495618	     -7.49983279	     48.10371918	     -5.28445842	     -4.63488638	     22.53979186	      0.39339358	     -8.69297364	    -12.00876089	     -7.49983279	    -27.92716120	     -6.83579319	      5.62880755	     44.50283807	     13.92508185	     73.92550109	    122.34296557	     94.92222948	     61.49730895	     13.04412843	     77.48284692	    125.89016100	     72.61535885
      2.03333330	     -4.33974691	      7.55801321	     -2.56162706	      0.71190721	      0.97449025	      0.07002803	     18.95872001	     -0.09481985	      6.33380320	     23.74984622	      0.41451301	     17.10272611	      1.79705572	     -7.49983786	     47.28890895	     -5.01922532	     -4.62810169	     21.81192631	      0.38068993	     -8.29959383	    -11.46465485	     -7.49983786	    -27.17435387	     -6.42991272	      5.39902216	     43.84670572	     13.75563980	     73.38547017	    122.32608608	     94.96331906	     60.62950952	     12.82218572	     76.59378566	    125.86567696	     71.89295530
      2.05000000	     -4.19560357	      7.64923503	     -2.37787653	      0.71657923	      0.97479729	      0.06760414	     17.97602962	     -0.43172167	      6.24434420	     22.55454595	      0.39365109	     16.96274148	      2.19635384	     -7.49984283	     46.59481945	     -4.58539276	     -4.73090374	     21.44497319	      0.37428539	     -7.71413073	    -11.30428157	     -7.49984283	    -26.30295605	     -6.01145553	      4.76782944	     43.31056752	     14.05762509	     73.44523817	    122.35209197	     94.74344188	     59.37147857	     12.52002321	     75.84949257	    125.70085871	     71.27031426
      2.06666670	     -4.03655042	      7.83310330	     -2.61341117	      0.71688709	      0.98288664	      0.06707328	     16.95745528	     -0.78310889	      6.50463681	     21.15432968	      0.36921270	     16.35871448	      2.69689469	     -7.49984727	     45.34668976	     -4.30191301	     -5.16568347	     20.21873276	      0.35288346	     -7.32365646	    -10.32680083	     -7.49984727	    -25.70059329	     -5.59793846	      4.49128556	     42.73855160	     14.24761546	     73.46579802	    121.99715095	     94.86718540	     58.09807486	     12.02472072	     75.02363898	    125.95848342	     70.82720477
      2.08333330	     -3.97307790	      7.82396504	     -2.53280034	      0.71688460	      0.98194388	      0.06744421	     16.27934914	     -0.85954850	      6.55186032	     20.13029997	      0.35134001	     16.01567704	      3.00510776	     -7.49985291	     44.74650674	     -4.16246950	     -5.60997182	     19.68189451	      0.34351386	     -7.01536237	     -9.75930228	     -7.49985291	    -25.01429015	     -5.29522754	      4.34793605	     42.30809530	     14.39644529	     73.42865638	    121.99179554	     93.98132401	     57.04080778	     12.00636857	     74.71098472	    125.77829342	     70.53343962
      2.10000000	     -4.13742447	      7.83199649	     -2.39515431	      0.71691879	      0.98223626	      0.06706601	     15.98797619	     -0.95753300	      6.51344634	     19.37279427	      0.33811905	     15.52570778	      2.88676555	     -7.49985690	     44.45442286	     -4.13433839	     -5.70731459	     19.64355807	      0.34284477	     -6.93598421	     -9.70825753	     -7.49985690	    -24.38284553	     -4.88699177	      4.32896297	     42.06218062	     14.61241789	     73.40915590	    121.61999026	     93.38811344	     55.84401739	     12.24576259	     74.61624121	    125.91533971	     70.00604526
